<svg width="96" height="96" xmlns="http://www.w3.org/2000/svg" xmlns:xlink="http://www.w3.org/1999/xlink" xml:space="preserve" overflow="hidden"><g transform="translate(-267 -360)"><path d="M311.19 404.77 308.19 401.77C308.637 400.174 307.705 398.519 306.109 398.073 305.071 397.782 303.956 398.071 303.19 398.83 301.27 400.83 296.19 405.34 290.5 405.34 284.81 405.34 279.74 400.79 277.82 398.83 276.643 397.664 274.743 397.673 273.577 398.851 272.819 399.617 272.529 400.732 272.82 401.77L269.82 404.77C268.652 405.957 268.668 407.867 269.855 409.035 271.042 410.203 272.952 410.187 274.12 409L277 406.12C277.71 406.66 278.49 407.21 279.33 407.75L277.46 411.48C276.736 412.955 277.333 414.739 278.8 415.48 279.215 415.692 279.674 415.801 280.14 415.8 281.279 415.802 282.321 415.159 282.83 414.14L284.72 410.35C285.633 410.666 286.569 410.91 287.52 411.08L287.52 415C287.52 416.657 288.863 418 290.52 418 292.177 418 293.52 416.657 293.52 415L293.52 411.1C294.474 410.93 295.414 410.686 296.33 410.37L298.22 414.16C298.729 415.179 299.771 415.822 300.91 415.82 301.376 415.821 301.835 415.712 302.25 415.5 303.717 414.759 304.315 412.975 303.59 411.5L301.72 407.76C302.56 407.23 303.34 406.68 304.05 406.14L307 409C308.212 410.13 310.111 410.062 311.24 408.85 312.314 407.698 312.314 405.912 311.24 404.76Z" fill="#FFFAFD"/><path d="M360.12 404.77 357.12 401.77C357.566 400.174 356.635 398.519 355.039 398.073 354.001 397.782 352.886 398.071 352.12 398.83 350.2 400.83 345.12 405.34 339.44 405.34 333.76 405.34 328.7 400.82 326.78 398.86 325.603 397.694 323.703 397.703 322.537 398.881 321.779 399.647 321.489 400.762 321.78 401.8L318.78 404.8C317.55 405.91 317.453 407.807 318.563 409.037 319.673 410.267 321.57 410.364 322.8 409.254 322.888 409.174 322.972 409.09 323.05 409L325.94 406.11C326.65 406.65 327.43 407.2 328.27 407.74L326.4 411.48C325.676 412.955 326.273 414.739 327.74 415.48 328.155 415.692 328.614 415.801 329.08 415.8 330.219 415.802 331.261 415.159 331.77 414.14L333.66 410.35C334.576 410.666 335.516 410.91 336.47 411.08L336.47 415C336.47 416.657 337.813 418 339.47 418 341.127 418 342.47 416.657 342.47 415L342.47 411.1C343.421 410.929 344.357 410.685 345.27 410.37L347.16 414.16C347.669 415.179 348.711 415.822 349.85 415.82 350.316 415.821 350.775 415.712 351.19 415.5 352.657 414.759 353.255 412.975 352.53 411.5L350.66 407.76C351.5 407.23 352.28 406.68 352.99 406.14L355.88 409C357.092 410.13 358.991 410.062 360.12 408.85 361.194 407.698 361.194 405.912 360.12 404.76Z" fill="#FFFAFD"/></g></svg>