<svg width="96" height="96" xmlns="http://www.w3.org/2000/svg" xmlns:xlink="http://www.w3.org/1999/xlink" xml:space="preserve" overflow="hidden">
<g transform="translate(-592 -312)">
<path d="M636.19 356.77 633.19 353.77C633.636 352.174 632.705 350.519 631.109 350.073 630.071 349.782 628.956 350.071 628.19 350.83 626.27 352.83 621.19 357.34 615.5 357.34 609.81 357.34 604.74 352.79 602.82 350.83 601.643 349.664 599.743 349.673 598.577 350.851 597.819 351.617 597.529 352.732 597.82 353.77L594.82 356.77C593.652 357.957 593.668 359.867 594.855 361.035 596.042 362.203 597.952 362.187 599.12 361L602 358.12C602.71 358.66 603.49 359.21 604.33 359.75L602.46 363.48C601.736 364.955 602.333 366.739 603.8 367.48 604.215 367.692 604.674 367.801 605.14 367.8 606.279 367.802 607.321 367.159 607.83 366.14L609.72 362.35C610.633 362.666 611.569 362.91 612.52 363.08L612.52 367C612.52 368.657 613.863 370 615.52 370 617.177 370 618.52 368.657 618.52 367L618.52 363.1C619.474 362.93 620.414 362.686 621.33 362.37L623.22 366.16C623.729 367.179 624.771 367.822 625.91 367.82 626.376 367.821 626.835 367.712 627.25 367.5 628.717 366.759 629.315 364.975 628.59 363.5L626.72 359.76C627.56 359.23 628.34 358.68 629.05 358.14L632 361C633.212 362.13 635.11 362.062 636.24 360.85 637.314 359.698 637.314 357.912 636.24 356.76Z"/><path d="M685.12 356.77 682.12 353.77C682.567 352.174 681.635 350.519 680.039 350.073 679.001 349.782 677.886 350.071 677.12 350.83 675.2 352.83 670.12 357.34 664.44 357.34 658.76 357.34 653.7 352.82 651.78 350.86 650.603 349.694 648.703 349.703 647.537 350.881 646.779 351.647 646.489 352.762 646.78 353.8L643.78 356.8C642.55 357.91 642.453 359.807 643.563 361.037 644.673 362.267 646.57 362.364 647.8 361.254 647.888 361.174 647.972 361.09 648.05 361L650.94 358.11C651.65 358.65 652.43 359.2 653.27 359.74L651.4 363.48C650.675 364.955 651.273 366.739 652.74 367.48 653.155 367.692 653.614 367.801 654.08 367.8 655.219 367.802 656.261 367.159 656.77 366.14L658.66 362.35C659.576 362.666 660.516 362.91 661.47 363.08L661.47 367C661.47 368.657 662.813 370 664.47 370 666.127 370 667.47 368.657 667.47 367L667.47 363.1C668.421 362.929 669.357 362.685 670.27 362.37L672.16 366.16C672.669 367.179 673.711 367.822 674.85 367.82 675.316 367.821 675.775 367.712 676.19 367.5 677.657 366.759 678.255 364.975 677.53 363.5L675.66 359.76C676.5 359.23 677.28 358.68 677.99 358.14L680.88 361C682.092 362.13 683.99 362.062 685.12 360.85 686.194 359.698 686.194 357.912 685.12 356.76Z"/></g></svg>